<?xml version="1.0" encoding="utf-8"?>
<!-- Generator: Adobe Illustrator 22.0.1, SVG Export Plug-In . SVG Version: 6.00 Build 0)  -->
<svg version="1.1" id="Layer_1" xmlns="http://www.w3.org/2000/svg" xmlns:xlink="http://www.w3.org/1999/xlink" x="0px" y="0px"
	 viewBox="0 0 789 100" style="enable-background:new 0 0 789 100;" xml:space="preserve">
<style type="text/css">
	.st0{fill:#582C83;}
</style>
<desc>Created with Sketch.</desc>
<g>
	<polygon class="st0" points="62.5,0 62.5,12.5 87.5,12.5 87.5,87.5 62.5,87.5 62.5,100 100,100 100,0 	"/>
	<polygon class="st0" points="0,0 0,100 37.5,100 37.5,87.5 12.5,87.5 12.5,12.5 37.5,12.5 37.5,0 	"/>
</g>
<g>
	<path d="M143.2,74.9c-10.1,0-17.9-5.3-18.1-14.5h10.5c0.2,3.9,2.8,6.5,7.3,6.5s7.4-2.5,7.4-5.9c0-10.5-25.1-4.2-25-21.8
		c0-8.8,7.1-14.1,17.1-14.1s16.8,5.1,17.4,13.9h-10.7c-0.2-3.2-2.8-5.7-7-5.8s-6.7,1.7-6.7,5.7c0,9.7,25,4.3,25,21.4
		C160.4,68,154.2,74.9,143.2,74.9z"/>
	<path d="M182.4,75c-11.2,0-19.6-7.8-19.6-19.9s8.7-19.9,19.9-19.9c11.2,0,19.8,7.7,19.8,19.9S193.6,75,182.4,75z M182.4,66.5
		c5.1,0,10.1-3.7,10.1-11.4s-4.8-11.4-10-11.4s-9.8,3.7-9.8,11.4S177.2,66.5,182.4,66.5z"/>
	<path d="M242.7,74.4h-9.8v-4.9c-2.8,3.5-7,5.5-11.5,5.4c-8.9,0-15.4-5.9-15.4-16.4V35.8h9.7v21.3c0,6.2,3.4,9.5,8.6,9.5
		s8.6-3.3,8.6-9.5V35.8h9.8L242.7,74.4z"/>
	<path d="M250.6,43.8H246v-8h4.6v-9.5h9.8v9.5h8.6v8h-8.6v18.7c0,2.6,1,3.7,4.1,3.7h4.5v8.2h-6.1c-7.4,0-12.3-3.1-12.3-12V43.8z"/>
	<path d="M272.2,22.9h9.8v17.7c2.9-3.5,7.3-5.5,11.9-5.3c8.7,0,15.1,5.8,15.1,16.5v22.6h-9.8V53.1c0-6.2-3.4-9.5-8.5-9.5
		s-8.7,3.3-8.7,9.5v21.3h-9.8V22.9z"/>
	<path d="M370.9,50.2c0,14.7-10.1,24.2-25.6,24.2h-17V25.8h17C360.8,25.8,370.9,35.4,370.9,50.2z M344.9,66.1c10.2,0,16-5.8,16-15.9
		s-5.8-16.2-16-16.2H338v32.1L344.9,66.1z"/>
	<path d="M392.4,75c-11.2,0-19.4-7.8-19.4-19.9s8-19.9,19.4-19.9s19,7.6,19,19.1c0,1.2-0.1,2.5-0.3,3.7h-28.2c0.5,5.7,4.4,9,9.3,9
		c3.3,0.2,6.3-1.7,7.7-4.7h10.5C408.3,69.4,401.9,75,392.4,75z M383,51.5h18.3c-0.2-5.1-4.2-8.3-9.2-8.3S383.7,46.2,383,51.5z"/>
	<path d="M420,35.8l9.8,29.6l9.7-29.6h10.4l-14.3,38.6h-11.8l-14.2-38.6L420,35.8z"/>
	<path d="M467.7,75c-11.2,0-19.6-7.8-19.6-19.9s8.7-19.9,19.9-19.9s19.8,7.7,19.8,19.9S478.9,75,467.7,75z M467.7,66.5
		c5.1,0,10.1-3.7,10.1-11.4s-4.8-11.4-10-11.4s-9.8,3.7-9.8,11.4S462.5,66.5,467.7,66.5z"/>
	<path d="M518.3,53.1c0-6.2-3.4-9.5-8.6-9.5s-8.7,3.3-8.7,9.5v21.3h-9.7V35.8h9.7v4.8c2.9-3.5,7.2-5.4,11.7-5.3
		c8.9,0,15.3,5.8,15.3,16.5v22.6h-9.7V53.1z"/>
	<path d="M568,25.2c10.8,0,19.6,5.8,22.9,15.7h-11.2c-2.3-4.6-6.5-6.9-11.7-6.9c-8.5,0-14.6,6.1-14.6,16s6.1,16.1,14.6,16.1
		c5.2,0,9.4-2.3,11.7-7h11.2c-3.3,10-12.1,15.7-22.9,15.7c-14,0-24.6-10.2-24.6-24.8S554,25.2,568,25.2z"/>
	<path d="M612.6,75c-11.1,0-19.5-7.8-19.5-19.9s8.7-19.9,19.8-19.9s19.9,7.7,19.9,19.9S623.8,75,612.6,75z M612.6,66.5
		c5.2,0,10.1-3.7,10.1-11.4s-4.8-11.4-9.9-11.4s-9.8,3.7-9.8,11.4S607.4,66.5,612.6,66.5z"/>
	<path d="M636.3,22.9h9.7v51.5h-9.7V22.9z"/>
	<path d="M652.1,22.9h9.7v51.5h-9.7V22.9z"/>
	<path d="M684.7,75c-11.2,0-19.4-7.8-19.4-19.9s8-19.9,19.4-19.9s19,7.6,19,19.1c0,1.2-0.1,2.5-0.3,3.7h-28.2c0.5,5.7,4.4,9,9.3,9
		s6.5-2.1,7.7-4.7h10.5C700.6,69.4,694.2,75,684.7,75z M675.3,51.5h18.3c-0.1-5.1-4.2-8.3-9.2-8.3S676.1,46.2,675.3,51.5z"/>
	<path d="M723.8,35.2c6,0,10.4,2.8,12.7,6.1v-5.5h9.8v38.9c0,10.4-6.4,18.7-19.1,18.7c-10.8,0-18.4-5.4-19.4-14.3h9.7
		c1,3.5,4.6,5.8,9.5,5.8s9.5-3,9.5-10.2v-6c-2.9,4.1-7.7,6.4-12.7,6.3c-9.9,0-17.6-8-17.6-20S713.9,35.2,723.8,35.2z M726.3,43.8
		c-5.2,0-10.2,3.9-10.2,11.2s5,11.5,10.2,11.5s10.2-4.1,10.2-11.4S731.6,43.8,726.3,43.8z"/>
	<path d="M769.2,75c-11.2,0-19.4-7.8-19.4-19.9s8-19.9,19.4-19.9s19,7.6,19,19.1c0,1.2-0.1,2.5-0.3,3.7h-28.2c0.5,5.7,4.4,9,9.3,9
		c3.3,0.2,6.3-1.7,7.7-4.7h10.5C785.1,69.4,778.7,75,769.2,75z M759.8,51.5h18.3c-0.2-5.1-4.2-8.3-9.2-8.3S760.5,46.2,759.8,51.5z"
		/>
</g>
</svg>
