<?xml version="1.0" encoding="UTF-8"?>
<svg width="600" height="300" viewBox="0 0 600 300" fill="none" xmlns="http://www.w3.org/2000/svg">
  <rect width="600" height="300" fill="#fff"/>
  <g transform="translate(65,0)">
    <!-- ANN style connections (all connectors originate and terminate at node midpoints) -->
    <g stroke="#b0b8c1" stroke-width="2">
      <!-- Inter-row connections: every node in row 1 (midpoint y=80) connects to every node in row 2 (midpoint y=202) -->
      <line x1="5" y1="80" x2="25" y2="202"/>
      <line x1="5" y1="80" x2="105" y2="202"/>
      <line x1="5" y1="80" x2="185" y2="202"/>
      <line x1="5" y1="80" x2="265" y2="202"/>
      <line x1="5" y1="80" x2="345" y2="202"/>
      <line x1="5" y1="80" x2="425" y2="202"/>
      <line x1="85" y1="80" x2="25" y2="202"/>
      <line x1="85" y1="80" x2="105" y2="202"/>
      <line x1="85" y1="80" x2="185" y2="202"/>
      <line x1="85" y1="80" x2="265" y2="202"/>
      <line x1="85" y1="80" x2="345" y2="202"/>
      <line x1="85" y1="80" x2="425" y2="202"/>
      <line x1="165" y1="80" x2="25" y2="202"/>
      <line x1="165" y1="80" x2="105" y2="202"/>
      <line x1="165" y1="80" x2="185" y2="202"/>
      <line x1="165" y1="80" x2="265" y2="202"/>
      <line x1="165" y1="80" x2="345" y2="202"/>
      <line x1="165" y1="80" x2="425" y2="202"/>
      <line x1="245" y1="80" x2="25" y2="202"/>
      <line x1="245" y1="80" x2="105" y2="202"/>
      <line x1="245" y1="80" x2="185" y2="202"/>
      <line x1="245" y1="80" x2="265" y2="202"/>
      <line x1="245" y1="80" x2="345" y2="202"/>
      <line x1="245" y1="80" x2="425" y2="202"/>
      <line x1="325" y1="80" x2="25" y2="202"/>
      <line x1="325" y1="80" x2="105" y2="202"/>
      <line x1="325" y1="80" x2="185" y2="202"/>
      <line x1="325" y1="80" x2="265" y2="202"/>
      <line x1="325" y1="80" x2="345" y2="202"/>
      <line x1="325" y1="80" x2="425" y2="202"/>
      <line x1="405" y1="80" x2="25" y2="202"/>
      <line x1="405" y1="80" x2="105" y2="202"/>
      <line x1="405" y1="80" x2="185" y2="202"/>
      <line x1="405" y1="80" x2="265" y2="202"/>
      <line x1="405" y1="80" x2="345" y2="202"/>
      <line x1="405" y1="80" x2="425" y2="202"/>
      <!-- Horizontal connectors between each node in row 1 (top row, vertical midpoint y=80) -->
      <line x1="5" y1="80" x2="85" y2="80"/>
      <line x1="85" y1="80" x2="165" y2="80"/>
      <line x1="165" y1="80" x2="245" y2="80"/>
      <line x1="245" y1="80" x2="325" y2="80"/>
      <line x1="325" y1="80" x2="405" y2="80"/>
      <!-- Horizontal connectors between each node in row 2 (bottom row, vertical midpoint y=202) -->
      <line x1="25" y1="202" x2="105" y2="202"/>
      <line x1="105" y1="202" x2="185" y2="202"/>
      <line x1="185" y1="202" x2="265" y2="202"/>
      <line x1="265" y1="202" x2="345" y2="202"/>
      <line x1="345" y1="202" x2="425" y2="202"/>
    </g>
    <!-- First row: T U R I N G -->
    <g font-family="Arial, Helvetica, sans-serif" font-size="28" font-weight="bold">
      <g>
        <circle cx="5" cy="80" r="28" fill="#fff" stroke="#2d3a4a" stroke-width="2"/>
        <text x="5" y="84" fill="#2d3a4a" text-anchor="middle" dominant-baseline="middle" alignment-baseline="middle">T</text>
      </g>
      <g>
        <circle cx="85" cy="80" r="28" fill="#fff" stroke="#2d3a4a" stroke-width="2"/>
        <text x="85" y="84" fill="#2d3a4a" text-anchor="middle" dominant-baseline="middle" alignment-baseline="middle">U</text>
      </g>
      <g>
        <circle cx="165" cy="80" r="28" fill="#fff" stroke="#2d3a4a" stroke-width="2"/>
        <text x="165" y="84" fill="#2d3a4a" text-anchor="middle" dominant-baseline="middle" alignment-baseline="middle">R</text>
      </g>
      <g>
        <circle cx="245" cy="80" r="28" fill="#fff" stroke="#2d3a4a" stroke-width="2"/>
        <text x="245" y="84" fill="#2d3a4a" text-anchor="middle" dominant-baseline="middle" alignment-baseline="middle">I</text>
      </g>
      <g>
        <circle cx="325" cy="80" r="28" fill="#fff" stroke="#2d3a4a" stroke-width="2"/>
        <text x="325" y="84" fill="#2d3a4a" text-anchor="middle" dominant-baseline="middle" alignment-baseline="middle">N</text>
      </g>
      <g>
        <circle cx="405" cy="80" r="28" fill="#fff" stroke="#2d3a4a" stroke-width="2"/>
        <text x="405" y="84" fill="#2d3a4a" text-anchor="middle" dominant-baseline="middle" alignment-baseline="middle">G</text>
      </g>
    </g>
    <!-- Second row: T U T O R -->
    <g font-family="Arial, Helvetica, sans-serif" font-size="28" font-weight="bold">
      <g>
        <circle cx="25" cy="202" r="28" fill="#fff" stroke="#2d3a4a" stroke-width="2"/>
        <text x="25" y="206" fill="#2d3a4a" text-anchor="middle" dominant-baseline="middle" alignment-baseline="middle">T</text>
      </g>
      <g>
        <circle cx="105" cy="202" r="28" fill="#fff" stroke="#2d3a4a" stroke-width="2"/>
        <text x="105" y="206" fill="#2d3a4a" text-anchor="middle" dominant-baseline="middle" alignment-baseline="middle">U</text>
      </g>
      <g>
        <circle cx="185" cy="202" r="28" fill="#fff" stroke="#2d3a4a" stroke-width="2"/>
        <text x="185" y="206" fill="#2d3a4a" text-anchor="middle" dominant-baseline="middle" alignment-baseline="middle">T</text>
      </g>
      <g>
        <circle cx="265" cy="202" r="28" fill="#fff" stroke="#2d3a4a" stroke-width="2"/>
        <text x="265" y="206" fill="#2d3a4a" text-anchor="middle" dominant-baseline="middle" alignment-baseline="middle">O</text>
      </g>
      <g>
        <circle cx="345" cy="202" r="28" fill="#fff" stroke="#2d3a4a" stroke-width="2"/>
        <text x="345" y="206" fill="#2d3a4a" text-anchor="middle" dominant-baseline="middle" alignment-baseline="middle">R</text>
      </g>
      <!-- Graduation cap node -->
      <g>
        <circle cx="425" cy="202" r="28" fill="#fff" stroke="#2d3a4a" stroke-width="2"/>
        <!-- Improved Graduation cap -->
        <g>
          <!-- Cap top: a flat diamond -->
          <polygon points="425,184 445,194 425,204 405,194" fill="#2d3a4a" stroke="#222" stroke-width="1"/>
          <!-- Cap base: a small rectangle for the headband -->
          <rect x="413" y="204" width="24" height="6" rx="2" fill="#222"/>
          <!-- Tassel: a line and a small circle, now 20% shorter -->
          <line x1="445" y1="194" x2="445" y2="208.2" stroke="#eab308" stroke-width="2"/>
          <circle cx="445" cy="211.2" r="3" fill="#eab308"/>
        </g>
      </g>
    </g>
    <!-- Italicised, alternative cursive tagline below the second node row with more space -->
    <text x="270" y="265" font-family="'Pacifico', 'Dancing Script', 'Segoe Script', 'Comic Sans MS', cursive, Arial, Helvetica, sans-serif" font-size="22" font-style="italic" text-anchor="middle" fill="#2d3a4a">
      Generating <tspan font-weight="bold">A</tspan>cademic <tspan font-weight="bold">I</tspan>ntegrity
    </text>
  </g>
</svg>
